<mxfile host="Electron" modified="2023-11-30T22:45:32.200Z" agent="Mozilla/5.0 (Macintosh; Intel Mac OS X 10_15_7) AppleWebKit/537.36 (KHTML, like Gecko) draw.io/22.1.2 Chrome/114.0.5735.289 Electron/25.9.4 Safari/537.36" etag="cqjWS9coJx6F9dcK6YaN" version="22.1.2" type="device">
  <diagram id="hxX9UbtfnJUgmgS2hHkN" name="Conceitual_MER">
    <mxGraphModel dx="997" dy="508" grid="1" gridSize="10" guides="1" tooltips="1" connect="1" arrows="1" fold="1" page="1" pageScale="1" pageWidth="1169" pageHeight="827" math="0" shadow="0">
      <root>
        <mxCell id="0" />
        <mxCell id="1" parent="0" />
        <mxCell id="2H0fbz2kN7FNFk3vnVkX-2" style="edgeStyle=orthogonalEdgeStyle;rounded=0;orthogonalLoop=1;jettySize=auto;html=1;endArrow=none;endFill=0;" parent="1" source="2H0fbz2kN7FNFk3vnVkX-3" edge="1">
          <mxGeometry relative="1" as="geometry">
            <mxPoint x="863" y="418" as="targetPoint" />
          </mxGeometry>
        </mxCell>
        <mxCell id="2H0fbz2kN7FNFk3vnVkX-3" value="Prescreve" style="rhombus;whiteSpace=wrap;html=1;" parent="1" vertex="1">
          <mxGeometry x="702.5" y="318" width="100.5" height="50" as="geometry" />
        </mxCell>
        <mxCell id="2H0fbz2kN7FNFk3vnVkX-4" style="edgeStyle=orthogonalEdgeStyle;rounded=0;orthogonalLoop=1;jettySize=auto;html=1;exitX=0;exitY=0.5;exitDx=0;exitDy=0;entryX=0.417;entryY=-0.067;entryDx=0;entryDy=0;entryPerimeter=0;endArrow=none;endFill=0;" parent="1" source="2H0fbz2kN7FNFk3vnVkX-3" edge="1">
          <mxGeometry relative="1" as="geometry">
            <mxPoint x="608.54" y="419.65" as="targetPoint" />
          </mxGeometry>
        </mxCell>
        <mxCell id="2H0fbz2kN7FNFk3vnVkX-5" style="edgeStyle=orthogonalEdgeStyle;rounded=0;orthogonalLoop=1;jettySize=auto;html=1;endArrow=none;endFill=0;" parent="1" edge="1">
          <mxGeometry relative="1" as="geometry">
            <mxPoint x="613.5" y="556.1914893617021" as="sourcePoint" />
            <mxPoint x="613.5" y="479" as="targetPoint" />
            <Array as="points">
              <mxPoint x="613.5" y="479" />
            </Array>
          </mxGeometry>
        </mxCell>
        <mxCell id="2H0fbz2kN7FNFk3vnVkX-6" value="" style="edgeStyle=orthogonalEdgeStyle;rounded=0;orthogonalLoop=1;jettySize=auto;html=1;endArrow=none;endFill=0;" parent="1" source="2H0fbz2kN7FNFk3vnVkX-7" target="2H0fbz2kN7FNFk3vnVkX-20" edge="1">
          <mxGeometry relative="1" as="geometry" />
        </mxCell>
        <mxCell id="2H0fbz2kN7FNFk3vnVkX-7" value="Treino" style="rounded=0;whiteSpace=wrap;html=1;" parent="1" vertex="1">
          <mxGeometry x="803" y="423" width="130" height="60" as="geometry" />
        </mxCell>
        <mxCell id="2H0fbz2kN7FNFk3vnVkX-8" style="edgeStyle=orthogonalEdgeStyle;rounded=0;orthogonalLoop=1;jettySize=auto;html=1;exitX=0.5;exitY=0;exitDx=0;exitDy=0;entryX=0.5;entryY=1;entryDx=0;entryDy=0;endArrow=none;endFill=0;" parent="1" source="2H0fbz2kN7FNFk3vnVkX-10" target="2H0fbz2kN7FNFk3vnVkX-16" edge="1">
          <mxGeometry relative="1" as="geometry" />
        </mxCell>
        <mxCell id="2H0fbz2kN7FNFk3vnVkX-9" style="edgeStyle=orthogonalEdgeStyle;rounded=0;orthogonalLoop=1;jettySize=auto;html=1;entryX=0.5;entryY=1;entryDx=0;entryDy=0;endArrow=none;endFill=0;" parent="1" source="2H0fbz2kN7FNFk3vnVkX-10" target="2H0fbz2kN7FNFk3vnVkX-20" edge="1">
          <mxGeometry relative="1" as="geometry" />
        </mxCell>
        <mxCell id="2H0fbz2kN7FNFk3vnVkX-11" value="" style="edgeStyle=orthogonalEdgeStyle;rounded=0;orthogonalLoop=1;jettySize=auto;html=1;endArrow=none;endFill=0;" parent="1" source="2H0fbz2kN7FNFk3vnVkX-12" target="2H0fbz2kN7FNFk3vnVkX-19" edge="1">
          <mxGeometry relative="1" as="geometry">
            <Array as="points">
              <mxPoint x="175" y="498" />
              <mxPoint x="175" y="498" />
            </Array>
          </mxGeometry>
        </mxCell>
        <mxCell id="2H0fbz2kN7FNFk3vnVkX-12" value="Produto" style="rounded=0;whiteSpace=wrap;html=1;" parent="1" vertex="1">
          <mxGeometry x="110" y="518" width="130" height="60" as="geometry" />
        </mxCell>
        <mxCell id="2H0fbz2kN7FNFk3vnVkX-13" value="" style="edgeStyle=orthogonalEdgeStyle;rounded=0;orthogonalLoop=1;jettySize=auto;html=1;endArrow=none;endFill=0;" parent="1" source="2H0fbz2kN7FNFk3vnVkX-15" target="2H0fbz2kN7FNFk3vnVkX-19" edge="1">
          <mxGeometry relative="1" as="geometry" />
        </mxCell>
        <mxCell id="2H0fbz2kN7FNFk3vnVkX-14" style="edgeStyle=orthogonalEdgeStyle;rounded=0;orthogonalLoop=1;jettySize=auto;html=1;entryX=0;entryY=0.5;entryDx=0;entryDy=0;endArrow=none;endFill=0;" parent="1" source="2H0fbz2kN7FNFk3vnVkX-15" target="2H0fbz2kN7FNFk3vnVkX-18" edge="1">
          <mxGeometry relative="1" as="geometry" />
        </mxCell>
        <mxCell id="2H0fbz2kN7FNFk3vnVkX-15" value="Cliente" style="rounded=0;whiteSpace=wrap;html=1;" parent="1" vertex="1">
          <mxGeometry x="280.5" y="418" width="120" height="60" as="geometry" />
        </mxCell>
        <mxCell id="2H0fbz2kN7FNFk3vnVkX-16" value="Contem" style="rhombus;whiteSpace=wrap;html=1;" parent="1" vertex="1">
          <mxGeometry x="563.25" y="523" width="100.5" height="50" as="geometry" />
        </mxCell>
        <mxCell id="cCLgpZ3Ay8LS2q0uAhMR-1" style="edgeStyle=orthogonalEdgeStyle;rounded=0;orthogonalLoop=1;jettySize=auto;html=1;entryX=0;entryY=0.5;entryDx=0;entryDy=0;endArrow=none;endFill=0;" parent="1" target="2H0fbz2kN7FNFk3vnVkX-10" edge="1">
          <mxGeometry relative="1" as="geometry">
            <mxPoint x="427.5" y="643" as="sourcePoint" />
          </mxGeometry>
        </mxCell>
        <mxCell id="2H0fbz2kN7FNFk3vnVkX-18" value="Contrata" style="rhombus;whiteSpace=wrap;html=1;" parent="1" vertex="1">
          <mxGeometry x="370" y="618" width="100.5" height="50" as="geometry" />
        </mxCell>
        <mxCell id="2H0fbz2kN7FNFk3vnVkX-19" value="Compra" style="rhombus;whiteSpace=wrap;html=1;" parent="1" vertex="1">
          <mxGeometry x="124.75" y="423" width="100.5" height="50" as="geometry" />
        </mxCell>
        <mxCell id="2H0fbz2kN7FNFk3vnVkX-20" value="Contem" style="rhombus;whiteSpace=wrap;html=1;" parent="1" vertex="1">
          <mxGeometry x="817.75" y="523" width="100.5" height="50" as="geometry" />
        </mxCell>
        <mxCell id="2H0fbz2kN7FNFk3vnVkX-21" value="" style="rounded=0;orthogonalLoop=1;jettySize=auto;html=1;endArrow=none;endFill=0;" parent="1" source="2H0fbz2kN7FNFk3vnVkX-22" target="2H0fbz2kN7FNFk3vnVkX-12" edge="1">
          <mxGeometry relative="1" as="geometry" />
        </mxCell>
        <mxCell id="2H0fbz2kN7FNFk3vnVkX-22" value="Descrição" style="ellipse;whiteSpace=wrap;html=1;" parent="1" vertex="1">
          <mxGeometry x="50" y="618" width="70" height="30" as="geometry" />
        </mxCell>
        <mxCell id="2H0fbz2kN7FNFk3vnVkX-23" value="" style="rounded=0;orthogonalLoop=1;jettySize=auto;html=1;endArrow=none;endFill=0;" parent="1" source="2H0fbz2kN7FNFk3vnVkX-24" target="2H0fbz2kN7FNFk3vnVkX-12" edge="1">
          <mxGeometry relative="1" as="geometry" />
        </mxCell>
        <mxCell id="2H0fbz2kN7FNFk3vnVkX-24" value="Quantidade" style="ellipse;whiteSpace=wrap;html=1;" parent="1" vertex="1">
          <mxGeometry x="124.75" y="618" width="74.75" height="30" as="geometry" />
        </mxCell>
        <mxCell id="2H0fbz2kN7FNFk3vnVkX-25" value="" style="rounded=0;orthogonalLoop=1;jettySize=auto;html=1;endArrow=none;endFill=0;" parent="1" source="2H0fbz2kN7FNFk3vnVkX-26" target="2H0fbz2kN7FNFk3vnVkX-10" edge="1">
          <mxGeometry relative="1" as="geometry">
            <mxPoint x="600.5" y="673" as="targetPoint" />
          </mxGeometry>
        </mxCell>
        <mxCell id="2H0fbz2kN7FNFk3vnVkX-26" value="Id" style="ellipse;whiteSpace=wrap;html=1;" parent="1" vertex="1">
          <mxGeometry x="473" y="680" width="55.5" height="30" as="geometry" />
        </mxCell>
        <mxCell id="2H0fbz2kN7FNFk3vnVkX-27" value="" style="rounded=0;orthogonalLoop=1;jettySize=auto;html=1;endArrow=none;endFill=0;entryX=0.25;entryY=1;entryDx=0;entryDy=0;" parent="1" source="2H0fbz2kN7FNFk3vnVkX-28" target="2H0fbz2kN7FNFk3vnVkX-10" edge="1">
          <mxGeometry relative="1" as="geometry">
            <mxPoint x="635.5" y="673" as="targetPoint" />
          </mxGeometry>
        </mxCell>
        <mxCell id="2H0fbz2kN7FNFk3vnVkX-28" value="descrição" style="ellipse;whiteSpace=wrap;html=1;" parent="1" vertex="1">
          <mxGeometry x="523.5" y="710" width="74.75" height="30" as="geometry" />
        </mxCell>
        <mxCell id="2H0fbz2kN7FNFk3vnVkX-29" value="" style="rounded=0;orthogonalLoop=1;jettySize=auto;html=1;endArrow=none;endFill=0;" parent="1" source="2H0fbz2kN7FNFk3vnVkX-30" target="2H0fbz2kN7FNFk3vnVkX-7" edge="1">
          <mxGeometry relative="1" as="geometry" />
        </mxCell>
        <mxCell id="2H0fbz2kN7FNFk3vnVkX-30" value="Descrição" style="ellipse;whiteSpace=wrap;html=1;" parent="1" vertex="1">
          <mxGeometry x="883" y="368" width="74.75" height="30" as="geometry" />
        </mxCell>
        <mxCell id="2H0fbz2kN7FNFk3vnVkX-31" value="" style="rounded=0;orthogonalLoop=1;jettySize=auto;html=1;endArrow=none;endFill=0;" parent="1" source="2H0fbz2kN7FNFk3vnVkX-32" target="2H0fbz2kN7FNFk3vnVkX-7" edge="1">
          <mxGeometry relative="1" as="geometry" />
        </mxCell>
        <mxCell id="2H0fbz2kN7FNFk3vnVkX-32" value="Id" style="ellipse;whiteSpace=wrap;html=1;" parent="1" vertex="1">
          <mxGeometry x="783" y="368" width="70" height="30" as="geometry" />
        </mxCell>
        <mxCell id="2H0fbz2kN7FNFk3vnVkX-34" style="edgeStyle=orthogonalEdgeStyle;rounded=0;orthogonalLoop=1;jettySize=auto;html=1;endArrow=none;endFill=0;" parent="1" source="2H0fbz2kN7FNFk3vnVkX-36" target="2H0fbz2kN7FNFk3vnVkX-15" edge="1">
          <mxGeometry relative="1" as="geometry">
            <mxPoint x="330" y="413" as="targetPoint" />
            <Array as="points">
              <mxPoint x="460" y="380" />
              <mxPoint x="341" y="380" />
            </Array>
          </mxGeometry>
        </mxCell>
        <mxCell id="2H0fbz2kN7FNFk3vnVkX-35" style="edgeStyle=orthogonalEdgeStyle;rounded=0;orthogonalLoop=1;jettySize=auto;html=1;endArrow=none;endFill=0;exitX=0.5;exitY=1;exitDx=0;exitDy=0;" parent="1" source="2H0fbz2kN7FNFk3vnVkX-36" edge="1">
          <mxGeometry relative="1" as="geometry">
            <mxPoint x="477.5" y="298" as="sourcePoint" />
            <mxPoint x="590" y="420" as="targetPoint" />
            <Array as="points">
              <mxPoint x="479" y="378" />
              <mxPoint x="590" y="378" />
            </Array>
          </mxGeometry>
        </mxCell>
        <mxCell id="2H0fbz2kN7FNFk3vnVkX-36" value="Usuario" style="rounded=0;whiteSpace=wrap;html=1;" parent="1" vertex="1">
          <mxGeometry x="418.5" y="200" width="120" height="60" as="geometry" />
        </mxCell>
        <mxCell id="TbY2kZ_3erSOl1uZ0Roq-7" value="" style="rounded=0;orthogonalLoop=1;jettySize=auto;html=1;endArrow=none;endFill=0;" parent="1" source="2H0fbz2kN7FNFk3vnVkX-38" target="2H0fbz2kN7FNFk3vnVkX-36" edge="1">
          <mxGeometry relative="1" as="geometry" />
        </mxCell>
        <mxCell id="2H0fbz2kN7FNFk3vnVkX-38" value="Id" style="ellipse;whiteSpace=wrap;html=1;" parent="1" vertex="1">
          <mxGeometry x="338" y="230" width="40" height="30" as="geometry" />
        </mxCell>
        <mxCell id="TbY2kZ_3erSOl1uZ0Roq-9" style="rounded=0;orthogonalLoop=1;jettySize=auto;html=1;endArrow=none;endFill=0;" parent="1" source="2H0fbz2kN7FNFk3vnVkX-40" edge="1">
          <mxGeometry relative="1" as="geometry">
            <mxPoint x="418" y="205" as="targetPoint" />
          </mxGeometry>
        </mxCell>
        <mxCell id="2H0fbz2kN7FNFk3vnVkX-40" value="nome" style="ellipse;whiteSpace=wrap;html=1;" parent="1" vertex="1">
          <mxGeometry x="338" y="190" width="40" height="30" as="geometry" />
        </mxCell>
        <mxCell id="2H0fbz2kN7FNFk3vnVkX-42" value="endereço" style="ellipse;whiteSpace=wrap;html=1;" parent="1" vertex="1">
          <mxGeometry x="370" y="130" width="54.25" height="30" as="geometry" />
        </mxCell>
        <mxCell id="TbY2kZ_3erSOl1uZ0Roq-12" value="" style="rounded=0;orthogonalLoop=1;jettySize=auto;html=1;endArrow=none;endFill=0;" parent="1" source="2H0fbz2kN7FNFk3vnVkX-43" target="2H0fbz2kN7FNFk3vnVkX-36" edge="1">
          <mxGeometry relative="1" as="geometry" />
        </mxCell>
        <mxCell id="2H0fbz2kN7FNFk3vnVkX-43" value="telefone" style="ellipse;whiteSpace=wrap;html=1;" parent="1" vertex="1">
          <mxGeometry x="585" y="140" width="56" height="30" as="geometry" />
        </mxCell>
        <mxCell id="TbY2kZ_3erSOl1uZ0Roq-15" style="rounded=0;orthogonalLoop=1;jettySize=auto;html=1;entryX=1;entryY=0.5;entryDx=0;entryDy=0;endArrow=none;endFill=0;" parent="1" source="2H0fbz2kN7FNFk3vnVkX-45" target="2H0fbz2kN7FNFk3vnVkX-36" edge="1">
          <mxGeometry relative="1" as="geometry">
            <mxPoint x="533.5" y="245" as="targetPoint" />
          </mxGeometry>
        </mxCell>
        <mxCell id="2H0fbz2kN7FNFk3vnVkX-45" value="senha" style="ellipse;whiteSpace=wrap;html=1;" parent="1" vertex="1">
          <mxGeometry x="573.5" y="220" width="40" height="30" as="geometry" />
        </mxCell>
        <mxCell id="TbY2kZ_3erSOl1uZ0Roq-16" value="" style="rounded=0;orthogonalLoop=1;jettySize=auto;html=1;endArrow=none;endFill=0;" parent="1" target="2H0fbz2kN7FNFk3vnVkX-36" edge="1">
          <mxGeometry relative="1" as="geometry">
            <mxPoint x="570" y="260" as="sourcePoint" />
          </mxGeometry>
        </mxCell>
        <mxCell id="2H0fbz2kN7FNFk3vnVkX-47" value="data nascimento" style="ellipse;whiteSpace=wrap;html=1;" parent="1" vertex="1">
          <mxGeometry x="538.5" y="262" width="90" height="32" as="geometry" />
        </mxCell>
        <mxCell id="2H0fbz2kN7FNFk3vnVkX-48" style="edgeStyle=orthogonalEdgeStyle;rounded=0;orthogonalLoop=1;jettySize=auto;html=1;entryX=1;entryY=0.5;entryDx=0;entryDy=0;endArrow=none;endFill=0;" parent="1" source="2H0fbz2kN7FNFk3vnVkX-49" target="2H0fbz2kN7FNFk3vnVkX-12" edge="1">
          <mxGeometry relative="1" as="geometry" />
        </mxCell>
        <mxCell id="2H0fbz2kN7FNFk3vnVkX-49" value="data Cadastro" style="ellipse;whiteSpace=wrap;html=1;" parent="1" vertex="1">
          <mxGeometry x="230" y="586" width="79.25" height="32" as="geometry" />
        </mxCell>
        <mxCell id="2H0fbz2kN7FNFk3vnVkX-50" style="rounded=0;orthogonalLoop=1;jettySize=auto;html=1;exitX=1;exitY=0;exitDx=0;exitDy=0;entryX=0;entryY=0.5;entryDx=0;entryDy=0;endArrow=none;endFill=0;" parent="1" source="2H0fbz2kN7FNFk3vnVkX-51" target="2H0fbz2kN7FNFk3vnVkX-12" edge="1">
          <mxGeometry relative="1" as="geometry" />
        </mxCell>
        <mxCell id="2H0fbz2kN7FNFk3vnVkX-51" value="Id" style="ellipse;whiteSpace=wrap;html=1;" parent="1" vertex="1">
          <mxGeometry x="20" y="573" width="70" height="30" as="geometry" />
        </mxCell>
        <mxCell id="2H0fbz2kN7FNFk3vnVkX-52" style="rounded=0;orthogonalLoop=1;jettySize=auto;html=1;exitX=0.5;exitY=0;exitDx=0;exitDy=0;endArrow=none;endFill=0;" parent="1" source="2H0fbz2kN7FNFk3vnVkX-53" edge="1">
          <mxGeometry relative="1" as="geometry">
            <mxPoint x="210" y="580" as="targetPoint" />
          </mxGeometry>
        </mxCell>
        <mxCell id="2H0fbz2kN7FNFk3vnVkX-53" value="Valor" style="ellipse;whiteSpace=wrap;html=1;" parent="1" vertex="1">
          <mxGeometry x="200" y="638" width="74.75" height="30" as="geometry" />
        </mxCell>
        <mxCell id="HkQKOvz37qz3NRzAjRrp-2" value="" style="rounded=0;orthogonalLoop=1;jettySize=auto;html=1;endArrow=none;endFill=0;" parent="1" edge="1">
          <mxGeometry relative="1" as="geometry">
            <mxPoint x="641.115792462459" y="389.99749096082087" as="sourcePoint" />
            <mxPoint x="641" y="420" as="targetPoint" />
          </mxGeometry>
        </mxCell>
        <mxCell id="HkQKOvz37qz3NRzAjRrp-1" value="Id" style="ellipse;whiteSpace=wrap;html=1;" parent="1" vertex="1">
          <mxGeometry x="623.75" y="360" width="40" height="30" as="geometry" />
        </mxCell>
        <mxCell id="wZ7H64TIO_ju1m6eWfpK-2" style="rounded=0;orthogonalLoop=1;jettySize=auto;html=1;entryX=1;entryY=0.25;entryDx=0;entryDy=0;endArrow=none;endFill=0;" parent="1" source="wZ7H64TIO_ju1m6eWfpK-1" target="2H0fbz2kN7FNFk3vnVkX-1" edge="1">
          <mxGeometry relative="1" as="geometry" />
        </mxCell>
        <mxCell id="wZ7H64TIO_ju1m6eWfpK-1" value="cargo" style="ellipse;whiteSpace=wrap;html=1;" parent="1" vertex="1">
          <mxGeometry x="693" y="378" width="60" height="30" as="geometry" />
        </mxCell>
        <mxCell id="aEa6rNC4f21PHhbP_fUP-2" style="rounded=0;orthogonalLoop=1;jettySize=auto;html=1;entryX=1;entryY=1;entryDx=0;entryDy=0;endArrow=none;endFill=0;" parent="1" source="aEa6rNC4f21PHhbP_fUP-1" target="2H0fbz2kN7FNFk3vnVkX-1" edge="1">
          <mxGeometry relative="1" as="geometry" />
        </mxCell>
        <mxCell id="aEa6rNC4f21PHhbP_fUP-1" value="conta bancaria" style="ellipse;whiteSpace=wrap;html=1;" parent="1" vertex="1">
          <mxGeometry x="702.5" y="438" width="74.75" height="30" as="geometry" />
        </mxCell>
        <mxCell id="nd3rtq01s-b8BwGgmtZj-2" value="" style="rounded=0;orthogonalLoop=1;jettySize=auto;html=1;endArrow=none;endFill=0;" parent="1" source="nd3rtq01s-b8BwGgmtZj-1" target="2H0fbz2kN7FNFk3vnVkX-7" edge="1">
          <mxGeometry relative="1" as="geometry" />
        </mxCell>
        <mxCell id="nd3rtq01s-b8BwGgmtZj-1" value="grupo_muscular" style="ellipse;whiteSpace=wrap;html=1;" parent="1" vertex="1">
          <mxGeometry x="963" y="423" width="97" height="30" as="geometry" />
        </mxCell>
        <mxCell id="efkbPqrbHw0xSYp-QGrZ-3" value="tipo" style="ellipse;whiteSpace=wrap;html=1;" parent="1" vertex="1">
          <mxGeometry x="606.38" y="710" width="74.75" height="30" as="geometry" />
        </mxCell>
        <mxCell id="C4CND4iTuomj5UEXJb1Z-5" style="rounded=0;orthogonalLoop=1;jettySize=auto;html=1;entryX=1;entryY=1;entryDx=0;entryDy=0;endArrow=none;endFill=0;" parent="1" source="C4CND4iTuomj5UEXJb1Z-1" target="2H0fbz2kN7FNFk3vnVkX-10" edge="1">
          <mxGeometry relative="1" as="geometry" />
        </mxCell>
        <mxCell id="C4CND4iTuomj5UEXJb1Z-1" value="valor" style="ellipse;whiteSpace=wrap;html=1;" parent="1" vertex="1">
          <mxGeometry x="685.63" y="680" width="74.75" height="30" as="geometry" />
        </mxCell>
        <mxCell id="C4CND4iTuomj5UEXJb1Z-6" style="rounded=0;orthogonalLoop=1;jettySize=auto;html=1;entryX=1;entryY=0.25;entryDx=0;entryDy=0;endArrow=none;endFill=0;" parent="1" source="C4CND4iTuomj5UEXJb1Z-2" target="2H0fbz2kN7FNFk3vnVkX-10" edge="1">
          <mxGeometry relative="1" as="geometry" />
        </mxCell>
        <mxCell id="C4CND4iTuomj5UEXJb1Z-2" value="data cadastro" style="ellipse;whiteSpace=wrap;html=1;" parent="1" vertex="1">
          <mxGeometry x="700.25" y="598" width="79.25" height="32" as="geometry" />
        </mxCell>
        <mxCell id="C4CND4iTuomj5UEXJb1Z-4" style="rounded=0;orthogonalLoop=1;jettySize=auto;html=1;exitX=0.5;exitY=0;exitDx=0;exitDy=0;endArrow=none;endFill=0;" parent="1" source="efkbPqrbHw0xSYp-QGrZ-3" edge="1">
          <mxGeometry relative="1" as="geometry">
            <mxPoint x="627" y="670" as="targetPoint" />
          </mxGeometry>
        </mxCell>
        <mxCell id="rgX6DGm_eOjqopZoTxJ5-2" style="rounded=0;orthogonalLoop=1;jettySize=auto;html=1;endArrow=none;endFill=0;" parent="1" source="rgX6DGm_eOjqopZoTxJ5-1" edge="1">
          <mxGeometry relative="1" as="geometry">
            <mxPoint x="280" y="420" as="targetPoint" />
          </mxGeometry>
        </mxCell>
        <mxCell id="rgX6DGm_eOjqopZoTxJ5-1" value="Id" style="ellipse;whiteSpace=wrap;html=1;direction=south;" parent="1" vertex="1">
          <mxGeometry x="210" y="373" width="40.25" height="27" as="geometry" />
        </mxCell>
        <mxCell id="rgX6DGm_eOjqopZoTxJ5-4" value="" style="rounded=0;orthogonalLoop=1;jettySize=auto;html=1;endArrow=none;endFill=0;entryX=0.163;entryY=-0.017;entryDx=0;entryDy=0;entryPerimeter=0;" parent="1" source="rgX6DGm_eOjqopZoTxJ5-3" target="2H0fbz2kN7FNFk3vnVkX-15" edge="1">
          <mxGeometry relative="1" as="geometry" />
        </mxCell>
        <mxCell id="rgX6DGm_eOjqopZoTxJ5-3" value="situação" style="ellipse;whiteSpace=wrap;html=1;" parent="1" vertex="1">
          <mxGeometry x="260.25" y="341" width="60" height="32" as="geometry" />
        </mxCell>
        <mxCell id="m2qq6oKsfd60PrS81SH0-1" value="cpf" style="ellipse;whiteSpace=wrap;html=1;" parent="1" vertex="1">
          <mxGeometry x="338" y="150" width="40" height="30" as="geometry" />
        </mxCell>
        <mxCell id="TbY2kZ_3erSOl1uZ0Roq-13" style="rounded=0;orthogonalLoop=1;jettySize=auto;html=1;exitX=0;exitY=1;exitDx=0;exitDy=0;entryX=1;entryY=0;entryDx=0;entryDy=0;endArrow=none;endFill=0;" parent="1" source="cylBnKSEgxiloxzSDklT-1" target="2H0fbz2kN7FNFk3vnVkX-36" edge="1">
          <mxGeometry relative="1" as="geometry" />
        </mxCell>
        <mxCell id="cylBnKSEgxiloxzSDklT-1" value="email" style="ellipse;whiteSpace=wrap;html=1;" parent="1" vertex="1">
          <mxGeometry x="565.5" y="180" width="56" height="30" as="geometry" />
        </mxCell>
        <mxCell id="IgyOjHs37z9GDd3kN02a-7" style="rounded=0;orthogonalLoop=1;jettySize=auto;html=1;entryX=0;entryY=1;entryDx=0;entryDy=0;endArrow=none;endFill=0;" parent="1" source="TbY2kZ_3erSOl1uZ0Roq-1" target="2H0fbz2kN7FNFk3vnVkX-36" edge="1">
          <mxGeometry relative="1" as="geometry" />
        </mxCell>
        <mxCell id="TbY2kZ_3erSOl1uZ0Roq-1" value="data cadastro" style="ellipse;whiteSpace=wrap;html=1;" parent="1" vertex="1">
          <mxGeometry x="370" y="288" width="79.25" height="28" as="geometry" />
        </mxCell>
        <mxCell id="TbY2kZ_3erSOl1uZ0Roq-2" value="genero" style="ellipse;whiteSpace=wrap;html=1;" parent="1" vertex="1">
          <mxGeometry x="497" y="288" width="41.5" height="30" as="geometry" />
        </mxCell>
        <mxCell id="TbY2kZ_3erSOl1uZ0Roq-10" style="rounded=0;orthogonalLoop=1;jettySize=auto;html=1;entryX=0.079;entryY=-0.05;entryDx=0;entryDy=0;entryPerimeter=0;endArrow=none;endFill=0;" parent="1" source="m2qq6oKsfd60PrS81SH0-1" target="2H0fbz2kN7FNFk3vnVkX-36" edge="1">
          <mxGeometry relative="1" as="geometry" />
        </mxCell>
        <mxCell id="TbY2kZ_3erSOl1uZ0Roq-11" style="rounded=0;orthogonalLoop=1;jettySize=auto;html=1;entryX=0.313;entryY=-0.1;entryDx=0;entryDy=0;entryPerimeter=0;endArrow=none;endFill=0;" parent="1" source="2H0fbz2kN7FNFk3vnVkX-42" target="2H0fbz2kN7FNFk3vnVkX-36" edge="1">
          <mxGeometry relative="1" as="geometry" />
        </mxCell>
        <mxCell id="TbY2kZ_3erSOl1uZ0Roq-20" style="rounded=0;orthogonalLoop=1;jettySize=auto;html=1;entryX=0.663;entryY=1;entryDx=0;entryDy=0;entryPerimeter=0;endArrow=none;endFill=0;exitX=0.289;exitY=-0.1;exitDx=0;exitDy=0;exitPerimeter=0;" parent="1" source="TbY2kZ_3erSOl1uZ0Roq-2" target="2H0fbz2kN7FNFk3vnVkX-36" edge="1">
          <mxGeometry relative="1" as="geometry">
            <mxPoint x="544.8500183945068" y="275.20001379588007" as="sourcePoint" />
          </mxGeometry>
        </mxCell>
        <mxCell id="2H0fbz2kN7FNFk3vnVkX-10" value="Plano" style="rounded=0;whiteSpace=wrap;html=1;" parent="1" vertex="1">
          <mxGeometry x="548.5" y="613" width="130" height="60" as="geometry" />
        </mxCell>
        <mxCell id="IgyOjHs37z9GDd3kN02a-5" style="rounded=0;orthogonalLoop=1;jettySize=auto;html=1;entryX=0;entryY=0.75;entryDx=0;entryDy=0;endArrow=none;endFill=0;" parent="1" source="Y7qJ8N6-MXtNR9TX3iED-1" target="2H0fbz2kN7FNFk3vnVkX-36" edge="1">
          <mxGeometry relative="1" as="geometry" />
        </mxCell>
        <mxCell id="Y7qJ8N6-MXtNR9TX3iED-1" value="matricula" style="ellipse;whiteSpace=wrap;html=1;" parent="1" vertex="1">
          <mxGeometry x="313.25" y="266" width="64.75" height="24" as="geometry" />
        </mxCell>
        <mxCell id="IgyOjHs37z9GDd3kN02a-9" value="" style="rounded=0;orthogonalLoop=1;jettySize=auto;html=1;endArrow=none;endFill=0;" parent="1" source="Y7qJ8N6-MXtNR9TX3iED-2" target="2H0fbz2kN7FNFk3vnVkX-36" edge="1">
          <mxGeometry relative="1" as="geometry" />
        </mxCell>
        <mxCell id="Y7qJ8N6-MXtNR9TX3iED-2" value="bairro" style="ellipse;whiteSpace=wrap;html=1;" parent="1" vertex="1">
          <mxGeometry x="446.5" y="100" width="55.25" height="22" as="geometry" />
        </mxCell>
        <mxCell id="z4RjQZLNcbH6ev-fKaRs-1" value="cep" style="ellipse;whiteSpace=wrap;html=1;" parent="1" vertex="1">
          <mxGeometry x="401.88" y="102" width="36.75" height="20" as="geometry" />
        </mxCell>
        <mxCell id="z4RjQZLNcbH6ev-fKaRs-2" value="cidade" style="ellipse;whiteSpace=wrap;html=1;" parent="1" vertex="1">
          <mxGeometry x="506.13" y="100" width="50" height="20" as="geometry" />
        </mxCell>
        <mxCell id="IgyOjHs37z9GDd3kN02a-12" style="rounded=0;orthogonalLoop=1;jettySize=auto;html=1;entryX=0.75;entryY=0;entryDx=0;entryDy=0;endArrow=none;endFill=0;" parent="1" source="z4RjQZLNcbH6ev-fKaRs-3" target="2H0fbz2kN7FNFk3vnVkX-36" edge="1">
          <mxGeometry relative="1" as="geometry" />
        </mxCell>
        <mxCell id="z4RjQZLNcbH6ev-fKaRs-3" value="estado" style="ellipse;whiteSpace=wrap;html=1;" parent="1" vertex="1">
          <mxGeometry x="555" y="108" width="60" height="22" as="geometry" />
        </mxCell>
        <mxCell id="2H0fbz2kN7FNFk3vnVkX-1" value="Funcionario" style="rounded=0;whiteSpace=wrap;html=1;" parent="1" vertex="1">
          <mxGeometry x="553.5" y="418" width="130" height="60" as="geometry" />
        </mxCell>
        <mxCell id="IgyOjHs37z9GDd3kN02a-8" style="rounded=0;orthogonalLoop=1;jettySize=auto;html=1;entryX=0.346;entryY=0;entryDx=0;entryDy=0;entryPerimeter=0;endArrow=none;endFill=0;" parent="1" source="z4RjQZLNcbH6ev-fKaRs-1" target="2H0fbz2kN7FNFk3vnVkX-36" edge="1">
          <mxGeometry relative="1" as="geometry" />
        </mxCell>
        <mxCell id="IgyOjHs37z9GDd3kN02a-11" style="rounded=0;orthogonalLoop=1;jettySize=auto;html=1;entryX=0.629;entryY=0;entryDx=0;entryDy=0;entryPerimeter=0;endArrow=none;endFill=0;" parent="1" source="z4RjQZLNcbH6ev-fKaRs-2" target="2H0fbz2kN7FNFk3vnVkX-36" edge="1">
          <mxGeometry relative="1" as="geometry" />
        </mxCell>
        <mxCell id="30nt8nSTAX4-_EMGTb6d-2" style="rounded=0;orthogonalLoop=1;jettySize=auto;html=1;endArrow=none;endFill=0;entryX=0.25;entryY=0;entryDx=0;entryDy=0;" parent="1" source="30nt8nSTAX4-_EMGTb6d-1" target="2H0fbz2kN7FNFk3vnVkX-15" edge="1">
          <mxGeometry relative="1" as="geometry">
            <mxPoint x="320" y="410" as="targetPoint" />
          </mxGeometry>
        </mxCell>
        <mxCell id="30nt8nSTAX4-_EMGTb6d-1" value="objetivo" style="ellipse;whiteSpace=wrap;html=1;" parent="1" vertex="1">
          <mxGeometry x="328" y="336" width="60" height="32" as="geometry" />
        </mxCell>
        <mxCell id="fS_PlexRgOiu3ppcqUKa-1" value="peso" style="ellipse;whiteSpace=wrap;html=1;" parent="1" vertex="1">
          <mxGeometry x="424.25" y="463" width="40" height="20" as="geometry" />
        </mxCell>
        <mxCell id="fS_PlexRgOiu3ppcqUKa-4" style="rounded=0;orthogonalLoop=1;jettySize=auto;html=1;endArrow=none;endFill=0;" parent="1" source="fS_PlexRgOiu3ppcqUKa-2" edge="1">
          <mxGeometry relative="1" as="geometry">
            <mxPoint x="370" y="480" as="targetPoint" />
          </mxGeometry>
        </mxCell>
        <mxCell id="fS_PlexRgOiu3ppcqUKa-2" value="altura" style="ellipse;whiteSpace=wrap;html=1;" parent="1" vertex="1">
          <mxGeometry x="378.5" y="498" width="40" height="20" as="geometry" />
        </mxCell>
        <mxCell id="fS_PlexRgOiu3ppcqUKa-3" value="data cadastro" style="ellipse;whiteSpace=wrap;html=1;" parent="1" vertex="1">
          <mxGeometry x="422.5" y="400" width="79.25" height="28" as="geometry" />
        </mxCell>
        <mxCell id="fS_PlexRgOiu3ppcqUKa-6" style="rounded=0;orthogonalLoop=1;jettySize=auto;html=1;entryX=0.996;entryY=0.633;entryDx=0;entryDy=0;entryPerimeter=0;endArrow=none;endFill=0;" parent="1" source="fS_PlexRgOiu3ppcqUKa-1" target="2H0fbz2kN7FNFk3vnVkX-15" edge="1">
          <mxGeometry relative="1" as="geometry" />
        </mxCell>
        <mxCell id="fS_PlexRgOiu3ppcqUKa-8" style="rounded=0;orthogonalLoop=1;jettySize=auto;html=1;entryX=1.004;entryY=0.117;entryDx=0;entryDy=0;entryPerimeter=0;endArrow=none;endFill=0;" parent="1" source="fS_PlexRgOiu3ppcqUKa-3" target="2H0fbz2kN7FNFk3vnVkX-15" edge="1">
          <mxGeometry relative="1" as="geometry" />
        </mxCell>
        <mxCell id="MChmKseM1zI6xkSyQcsI-2" value="" style="rounded=0;orthogonalLoop=1;jettySize=auto;html=1;endArrow=none;endFill=0;" parent="1" source="vTftL5FTAhQVSeHwkri1-1" target="2H0fbz2kN7FNFk3vnVkX-7" edge="1">
          <mxGeometry relative="1" as="geometry" />
        </mxCell>
        <mxCell id="vTftL5FTAhQVSeHwkri1-1" value="horario" style="ellipse;whiteSpace=wrap;html=1;" parent="1" vertex="1">
          <mxGeometry x="963" y="468" width="97" height="30" as="geometry" />
        </mxCell>
        <mxCell id="MChmKseM1zI6xkSyQcsI-3" style="rounded=0;orthogonalLoop=1;jettySize=auto;html=1;entryX=0.75;entryY=1;entryDx=0;entryDy=0;endArrow=none;endFill=0;" parent="1" source="MChmKseM1zI6xkSyQcsI-1" target="2H0fbz2kN7FNFk3vnVkX-7" edge="1">
          <mxGeometry relative="1" as="geometry" />
        </mxCell>
        <mxCell id="MChmKseM1zI6xkSyQcsI-1" value="data cadastro" style="ellipse;whiteSpace=wrap;html=1;" parent="1" vertex="1">
          <mxGeometry x="918.25" y="510" width="97" height="30" as="geometry" />
        </mxCell>
      </root>
    </mxGraphModel>
  </diagram>
</mxfile>
